Coordinates
version=1
nRows=17
nColumns=24
inDegrees=yes

Units are S.I. units (second, meters, Newtons, ...)
Angles are in degrees.

endheader
time	pelvis_tilt	pelvis_list	pelvis_rotation	pelvis_tx	pelvis_ty	pelvis_tz	hip_flexion_r	hip_adduction_r	hip_rotation_r	knee_angle_r	ankle_angle_r	subtalar_angle_r	mtp_angle_r	hip_flexion_l	hip_adduction_l	hip_rotation_l	knee_angle_l	ankle_angle_l	subtalar_angle_l	mtp_angle_l	lumbar_extension	lumbar_bending	lumbar_rotation
      0.86700000	     -5.38821610	      0.51567346	     -2.54953185	     -0.12195430	      0.90016124	      0.32873622	    -11.70151790	      3.33941672	     -0.34629578	     -6.75249555	     12.44218355	      3.99558293	      5.44425398	     29.49357652	      0.53636940	     -6.56778544	     -9.20753981	     -2.22949011	     -9.39912235	     -1.60196960	     -6.64936877	     -1.04600445	      8.75524591
      0.87116667	     -5.48519351	      0.53015102	     -2.67639147	     -0.11604453	      0.89870503	      0.32866449	    -11.76292088	      3.25421563	     -0.27459128	     -7.26234458	     12.66646988	      4.19185165	      5.77106143	     29.57375560	      0.56404778	     -6.24656424	     -8.95371830	     -2.30385216	     -9.49634514	     -1.60579678	     -6.48022780	     -1.09710463	      8.88635182
      0.87533333	     -5.58310691	      0.56202599	     -2.78791046	     -0.11015615	      0.89728027	      0.32860209	    -11.80520866	      3.15759584	     -0.15609890	     -7.80832202	     12.89232062	      4.30932333	      6.02087565	     29.68148398	      0.60910027	     -5.93804453	     -8.85794865	     -2.40008147	     -9.56748286	     -1.59895373	     -6.35532675	     -1.21520718	      8.95826716
      0.87950000	     -5.69419908	      0.60196740	     -2.89023102	     -0.10423245	      0.89588458	      0.32850444	    -11.79231873	      3.04811357	     -0.10058218	     -8.43867131	     13.09581358	      4.50824588	      6.30282226	     29.78972985	      0.67260107	     -5.59765752	     -8.83855421	     -2.52764054	     -9.74083386	     -1.58113434	     -6.17523826	     -1.32240310	      9.04402492
      0.88366667	     -5.79433825	      0.66236077	     -2.98878460	     -0.09827544	      0.89456701	      0.32834720	    -11.75119752	      2.90385305	     -0.12563739	     -9.14377742	     13.24302762	      4.81183311	      6.76535272	     29.86685470	      0.76947700	     -5.22793194	     -8.87930206	     -2.70561069	    -10.01728119	     -1.53550667	     -6.00912527	     -1.42766983	      9.12568755
      0.88783333	     -5.87655962	      0.75462803	     -3.06479252	     -0.09226849	      0.89332859	      0.32819876	    -11.72863890	      2.73318552	     -0.13226961	     -9.84403497	     13.29667010	      4.93591443	     10.59370385	     29.93078124	      0.90407114	     -4.89256572	     -9.02548046	     -2.95831838	    -10.28675039	     -0.99634180	     -5.86971987	     -1.61981979	      9.11321271
      0.89200000	     -6.00344385	      0.81965491	     -3.14507569	     -0.08632588	      0.89205889	      0.32804449	    -11.59754849	      2.59228832	     -0.10067022	    -10.67306708	     13.45721864	      5.15232854	     10.65104001	     30.08994900	      1.00238929	     -4.60367856	     -9.36295819	     -3.08261272	    -10.50942517	     -0.97627709	     -5.68371115	     -1.75605657	      9.14877481
      0.89616667	     -6.12101703	      0.91961429	     -3.20475882	     -0.08032870	      0.89087072	      0.32781932	    -11.43981696	      2.40504535	     -0.16149391	    -11.57600965	     13.56720772	      5.44437718	     10.75052887	     30.21555327	      1.15752600	     -4.29522175	     -9.72457795	     -3.31763019	    -10.84762494	     -0.94504477	     -5.50033169	     -1.93896340	      9.15055229
      0.90033333	     -6.20683378	      1.02544230	     -3.25128125	     -0.07431691	      0.88980040	      0.32752694	    -11.27457582	      2.19749877	     -0.29663731	    -12.55540639	     13.61356785	      5.86211696	     10.95510881	     30.29401956	      1.33646556	     -3.96594180	    -10.12825862	     -3.60383021	    -11.28933811	     -0.88159606	     -5.35455822	     -2.09810515	      9.14076556
      0.90450000	     -6.26390856	      1.17378452	     -3.27474034	     -0.06824855	      0.88883173	      0.32718915	    -11.11716949	      1.93937614	     -0.46203459	    -13.58363902	     13.65744110	      6.26195474	     11.49549050	     30.33444226	      1.57586035	     -3.64557817	    -10.58610905	     -3.86977675	    -11.79248531	     -0.71564778	     -5.24270672	     -2.35397875	      9.10401553
      0.90866667	     -6.38137978	      1.29022605	     -3.29510246	     -0.06221022	      0.88785077	      0.32685247	    -10.86302344	      1.72239646	     -0.56287829	    -14.65138746	     13.48936494	      6.50026593	     14.30712581	     30.47000394	      1.77420700	     -3.39315363	    -11.15455480	     -4.19843630	    -12.29491665	      0.14209688	     -5.04860103	     -2.54617552	      9.02062963
      0.91283333	     -6.48822430	      1.40924612	     -3.29952529	     -0.05619268	      0.88691827	      0.32649036	    -10.56115808	      1.49676137	     -0.69956053	    -15.84981088	     13.46000293	      6.85454025	     14.38631443	     30.63287356	      1.97148645	     -3.22867951	    -11.86331359	     -4.30669895	    -12.53760275	      0.16818173	     -4.87553462	     -2.75367231	      8.92318359
      0.91700000	     -6.57641461	      1.55049415	     -3.29190505	     -0.05014822	      0.88610305	      0.32606058	    -10.23968965	      1.23055987	     -0.89304060	    -17.11275568	     13.31999682	      7.28507377	     14.52615155	     30.75102558	      2.20833422	     -3.04923158	    -12.55672587	     -4.49143710	    -12.93143491	      0.20340805	     -4.72104790	     -2.97616522	      8.81330886
      0.92116667	     -6.63098103	      1.69404509	     -3.26710259	     -0.04412421	      0.88541075	      0.32555503	     -9.90364109	      0.94542635	     -1.14031968	    -18.46608147	     13.14748297	      7.77933699	     14.81043546	     30.82117401	      2.46433729	     -2.85635550	    -13.25040839	     -4.70943707	    -13.36804799	      0.26679967	     -4.62321083	     -3.16498266	      8.69062027
      0.92533333	     -6.70963582	      1.85067247	     -3.23501523	     -0.03806965	      0.88475732	      0.32508609	     -9.52364057	      0.65315567	     -1.31983307	    -19.83767377	     12.83298560	      8.15679604	     15.04019588	     30.93749077	      2.72208273	     -2.73801801	    -14.03393550	     -4.75414105	    -13.71679574	      0.31498598	     -4.48024787	     -3.44421099	      8.54143989
      0.92950000	     -6.67126229	      2.05452836	     -3.18865670	     -0.03200601	      0.88437189	      0.32446934	     -9.20299186	      0.25962478	     -1.66669103	    -21.32721565	     12.52316520	      8.80369553	     16.29944517	     30.86210253	      3.06635635	     -2.54769980	    -14.68693768	     -4.94360172	    -14.31117225	      0.54490396	     -4.49840916	     -3.72048842	      8.38689857
      0.93366667	     -6.76963376	      2.18575809	     -3.14003192	     -0.02603410	      0.88384083	      0.32394581	     -8.69621838	     -0.02331391	     -1.85162841	    -22.85218607	     11.96636945	      9.08168204	     20.54015103	     31.01409047	      3.29010024	     -2.52372990	    -15.53081407	     -4.95198931	    -14.51113666	      1.27413323	     -4.33244386	     -3.92285807	      8.19518822
